<?xml version="1.0" standalone="no"?>
<!DOCTYPE svg PUBLIC "-//W3C//DTD SVG 20010904//EN"
 "http://www.w3.org/TR/2001/REC-SVG-20010904/DTD/svg10.dtd">
<svg version="1.0" xmlns="http://www.w3.org/2000/svg"
 width="1600.000000pt" height="1600.000000pt" viewBox="0 0 1600.000000 1600.000000"
 preserveAspectRatio="xMidYMid meet">
<metadata>
Created by potrace 1.16, written by Peter Selinger 2001-2019
</metadata>
<g transform="translate(0.000000,1600.000000) scale(0.100000,-0.100000)"
fill="#000000" stroke="none">
<path d="M9160 11405 c-168 -29 -310 -96 -418 -199 -86 -81 -134 -226 -113
-339 14 -79 33 -110 108 -181 268 -253 455 -599 525 -971 32 -173 32 -496 0
-670 -69 -369 -213 -710 -446 -1055 -62 -92 -70 -110 -70 -149 1 -44 27 -81
59 -81 26 0 96 62 144 127 141 191 388 674 473 923 110 325 133 708 66 1133
-14 91 -19 144 -12 153 5 8 44 30 87 49 135 58 232 151 325 310 75 129 116
165 150 131 15 -15 17 -40 16 -209 0 -167 -4 -208 -26 -312 -29 -136 -74 -262
-159 -447 -68 -145 -82 -208 -54 -238 26 -29 62 -25 94 11 84 92 270 538 327
784 26 111 26 391 1 485 -53 194 -147 353 -289 492 -139 134 -342 229 -551
257 -96 13 -141 13 -237 -4z m354 -275 c156 -40 317 -154 332 -237 11 -57 -10
-134 -70 -259 -92 -192 -160 -271 -282 -330 -112 -54 -117 -51 -186 86 -66
133 -187 298 -300 413 -85 86 -98 104 -98 139 0 45 35 82 118 126 153 81 326
103 486 62z"/>
<path d="M8580 11309 c-237 -129 -465 -372 -578 -620 -22 -46 -42 -92 -45
-101 -4 -10 -12 -18 -18 -18 -6 0 -48 36 -93 79 -187 183 -377 311 -550 371
-72 25 -92 25 -101 3 -8 -22 7 -33 112 -91 181 -99 381 -279 566 -510 126
-157 128 -157 178 -10 106 315 314 611 582 827 66 54 78 76 55 99 -18 18 -26
16 -108 -29z"/>
<path d="M6655 11021 c-226 -37 -422 -145 -600 -332 -138 -145 -230 -306 -282
-495 -24 -88 -27 -116 -27 -259 -1 -219 34 -365 139 -576 101 -205 229 -362
590 -724 350 -352 644 -619 852 -776 184 -139 365 -203 339 -121 -4 11 -57 62
-119 114 -483 402 -752 798 -813 1202 -38 243 21 493 165 704 69 102 161 211
288 343 67 69 140 154 162 189 126 194 102 384 -68 555 -72 73 -178 132 -286
161 -69 18 -266 27 -340 15z m250 -245 c100 -22 161 -54 215 -113 110 -121 91
-192 -111 -398 -360 -369 -519 -675 -519 -995 0 -64 22 -230 39 -302 l9 -37
-74 67 c-236 214 -399 473 -461 734 -26 110 -23 300 5 401 49 171 129 305 259
427 194 184 426 262 638 216z"/>
<path d="M8467 11010 c-80 -63 -354 -561 -425 -773 l-29 -84 -46 58 c-76 94
-256 235 -293 227 -9 -1 -22 -10 -27 -20 -9 -13 1 -29 50 -85 90 -101 159
-203 243 -355 80 -146 102 -168 152 -149 31 11 42 40 63 154 40 219 142 502
297 820 74 150 90 191 82 205 -16 25 -37 25 -67 2z"/>
<path d="M8533 10639 c-17 -5 -45 -23 -62 -40 -25 -25 -31 -39 -31 -74 0 -89
66 -213 139 -262 89 -60 221 4 221 107 -1 83 -86 227 -155 260 -45 22 -63 23
-112 9z"/>
<path d="M7474 10171 c-54 -36 -211 -188 -281 -271 -255 -303 -347 -751 -231
-1120 35 -112 90 -217 165 -317 65 -87 98 -115 131 -111 52 6 50 27 -16 171
-81 178 -113 287 -119 409 -8 144 15 159 127 86 l65 -43 1 -53 c6 -284 63
-595 129 -708 33 -57 105 -145 190 -234 99 -103 169 -212 183 -286 25 -129 72
-524 72 -604 0 -47 -5 -128 -11 -180 -15 -136 -5 -209 35 -268 62 -90 69 -124
72 -362 2 -118 3 -221 3 -228 1 -7 16 -20 35 -29 29 -13 39 -14 65 -4 35 15
38 21 57 121 35 185 46 318 47 585 1 286 -7 378 -49 574 -57 265 -157 474
-434 901 -66 100 -95 183 -126 353 -23 126 -26 158 -21 302 9 294 57 441 286
878 61 117 72 145 69 180 -4 53 -35 74 -93 63 -30 -6 -56 -25 -125 -94 -139
-140 -251 -325 -315 -522 -36 -112 -42 -118 -102 -102 -55 15 -91 36 -100 58
-8 21 39 155 98 281 59 128 126 225 240 349 102 111 145 186 130 226 -20 54
-96 53 -177 -1z"/>
<path d="M8720 10199 c-38 -15 -60 -40 -60 -67 0 -18 21 -45 75 -96 83 -80
108 -126 146 -271 15 -61 23 -119 24 -180 0 -82 -3 -96 -33 -160 -18 -38 -64
-110 -102 -160 -77 -101 -109 -164 -110 -213 0 -43 28 -102 48 -102 22 0 82
66 191 208 51 68 111 142 132 165 l40 41 30 -37 c17 -20 39 -37 50 -37 17 0
19 7 19 60 0 119 -113 492 -215 706 -67 143 -78 154 -152 153 -32 0 -69 -5
-83 -10z"/>
<path d="M8384 10180 c-27 -11 -64 -62 -64 -87 0 -10 20 -38 44 -61 59 -58 76
-109 76 -236 0 -110 -16 -217 -54 -366 -72 -277 -82 -559 -30 -825 54 -279
155 -465 251 -465 48 0 116 109 249 400 108 238 168 326 261 386 47 30 54 38
51 62 -2 21 -14 32 -48 50 -60 31 -103 25 -177 -24 -77 -52 -144 -138 -233
-301 -94 -170 -133 -205 -164 -145 -35 69 -51 256 -35 417 5 50 25 185 44 300
49 301 55 352 55 486 0 131 -15 193 -72 300 -49 93 -103 131 -154 109z"/>
<path d="M8055 9642 c-83 -51 -131 -142 -223 -417 -77 -233 -87 -286 -86 -475
0 -130 4 -169 23 -240 31 -112 97 -251 169 -358 226 -333 349 -652 408 -1057
22 -147 25 -557 5 -710 -42 -332 -119 -637 -234 -930 l-50 -130 11 -230 c16
-323 47 -475 104 -509 78 -47 220 296 371 900 223 889 231 1489 26 2006 -57
144 -292 603 -381 744 -47 74 -105 198 -134 284 -26 79 -28 97 -28 250 -1 212
20 296 135 540 68 146 80 208 54 275 -9 25 -26 52 -38 60 -29 20 -96 19 -132
-3z"/>
<path d="M7528 763 l-3 -78 -67 -3 -68 -3 0 76 c0 41 -3 75 -7 75 -5 0 -17 -7
-27 -15 -13 -10 -43 -15 -85 -15 -76 0 -129 -22 -148 -60 -7 -14 -13 -63 -13
-115 0 -132 20 -154 153 -165 50 -5 84 -13 95 -24 10 -9 22 -16 25 -16 4 0 7
33 7 73 0 41 2 76 4 78 2 2 34 2 70 1 l66 -4 0 -69 c0 -68 5 -80 27 -58 7 7
50 15 98 20 135 12 155 34 155 171 0 130 -37 168 -160 168 -42 0 -64 5 -83 20
-14 11 -28 20 -31 20 -3 0 -6 -35 -8 -77z"/>
<path d="M8343 807 c-25 -41 -34 -44 -149 -50 -137 -8 -178 -45 -179 -159 0
-66 1 -69 42 -110 l43 -42 31 32 31 32 206 0 205 0 34 -36 c19 -20 35 -35 36
-33 2 2 19 23 40 47 29 33 37 50 37 82 l0 40 -212 2 c-130 2 -212 7 -214 13
-2 6 23 22 55 38 35 16 61 35 64 47 3 10 -7 45 -22 76 l-27 58 -21 -37z"/>
<path d="M6704 793 l-30 -37 -107 -6 c-100 -5 -108 -8 -137 -35 -33 -31 -50
-78 -50 -138 0 -31 8 -46 46 -88 l47 -49 15 22 c31 48 33 48 282 48 146 0 249
4 268 11 62 21 65 133 7 191 -28 28 -69 38 -158 38 -64 0 -106 17 -133 54
l-19 25 -31 -36z"/>
<path d="M7861 782 c-29 -46 -31 -54 -31 -146 l0 -97 40 -42 40 -42 40 42 40
42 0 98 c0 77 -4 104 -18 125 -16 25 -64 68 -75 68 -3 0 -19 -22 -36 -48z"/>
<path d="M8770 788 c-29 -39 -30 -45 -30 -145 l0 -104 37 -44 37 -45 34 37
c18 21 38 45 43 54 12 24 11 161 -2 196 -10 29 -67 93 -81 93 -4 0 -21 -19
-38 -42z"/>
<path d="M9255 811 c-11 -37 -51 -52 -143 -55 -141 -5 -184 -38 -190 -145 -5
-76 8 -105 58 -141 l28 -20 30 30 30 30 196 0 c180 0 245 -8 246 -29 0 -3 7
-15 15 -25 14 -18 16 -17 54 25 38 42 40 47 40 109 1 121 -35 153 -181 160
l-101 6 -32 37 c-37 42 -41 44 -50 18z"/>
</g>
</svg>
