<?xml version="1.0" standalone="no"?>
<!DOCTYPE svg PUBLIC "-//W3C//DTD SVG 20010904//EN"
 "http://www.w3.org/TR/2001/REC-SVG-20010904/DTD/svg10.dtd">
<svg version="1.0" xmlns="http://www.w3.org/2000/svg"
 width="1600.000000pt" height="1600.000000pt" viewBox="0 0 1600.000000 1600.000000"
 preserveAspectRatio="xMidYMid meet">

<g transform="translate(0.000000,1600.000000) scale(0.100000,-0.100000)"
fill="#000000" stroke="none">
<path d="M0 8000 l0 -8000 8000 0 8000 0 0 8000 0 8000 -8000 0 -8000 0 0
-8000z m9500 3380 c112 -29 120 -32 114 -41 -3 -5 1 -6 9 -3 17 6 134 -50 204
-97 102 -70 217 -195 291 -316 143 -236 170 -543 77 -868 -59 -204 -232 -594
-293 -657 -14 -16 -36 -28 -48 -28 -60 0 -56 77 10 214 24 50 46 101 50 114 4
12 12 22 17 22 6 0 7 5 4 10 -4 6 -2 16 3 23 19 24 75 195 98 302 19 83 26
153 31 285 6 194 -2 254 -38 263 -46 12 -67 -9 -167 -170 -94 -152 -197 -243
-329 -291 -76 -28 -84 -43 -66 -136 30 -157 43 -307 43 -511 0 -382 -41 -578
-195 -927 -28 -64 -51 -105 -58 -101 -6 3 -7 1 -3 -5 8 -14 -54 -138 -174
-347 -169 -296 -274 -399 -317 -315 -21 41 -6 85 66 193 466 696 590 1406 356
2032 -94 250 -203 419 -411 635 -100 104 -113 122 -129 176 -41 141 15 298
143 400 188 149 467 206 712 144z m-851 -97 c-146 -122 -261 -239 -351 -358
-34 -44 -65 -79 -70 -77 -5 1 -7 -2 -4 -7 4 -6 -10 -35 -29 -65 -57 -90 -133
-253 -167 -358 -17 -54 -34 -98 -38 -98 -4 0 -49 53 -101 118 -194 244 -433
452 -621 543 -27 13 -48 27 -48 31 0 11 2 11 72 -16 186 -70 354 -183 550
-374 83 -80 89 -84 110 -70 11 8 38 52 58 99 116 265 328 498 580 637 82 45
116 42 59 -5z m-1654 -287 c115 -31 202 -81 280 -159 167 -167 189 -355 64
-546 -23 -35 -90 -113 -149 -175 -59 -61 -133 -141 -165 -178 -31 -37 -62 -65
-68 -61 -5 3 -7 1 -3 -5 3 -5 -19 -46 -49 -91 -79 -114 -132 -225 -162 -338
-21 -82 -25 -121 -26 -238 0 -194 37 -352 125 -528 16 -32 26 -63 22 -70 -4
-7 -4 -9 1 -5 4 4 29 -28 54 -71 96 -160 250 -345 428 -515 69 -65 84 -92 45
-80 -14 5 -14 4 -2 -4 10 -8 18 -8 27 0 10 8 24 1 56 -29 23 -21 56 -49 74
-62 18 -14 29 -29 26 -34 -3 -6 -2 -7 4 -4 13 8 83 -58 83 -78 0 -8 -9 -15
-19 -15 -31 0 -161 51 -155 61 3 5 -1 6 -9 4 -7 -3 -25 5 -39 17 -14 13 -31
24 -38 26 -34 8 -297 230 -292 245 1 5 -2 6 -6 3 -18 -11 -415 360 -405 377 3
6 1 7 -5 3 -21 -13 -488 468 -635 654 -123 156 -221 355 -274 557 -25 98 -28
124 -27 273 0 146 3 176 26 262 53 196 146 354 298 509 217 221 458 324 735
315 66 -2 147 -12 180 -20z m1454 -147 c-39 -79 -91 -188 -114 -241 -23 -54
-46 -94 -50 -90 -5 4 -6 2 -2 -3 3 -6 -16 -71 -43 -144 -53 -144 -90 -277
-115 -410 -17 -96 -28 -113 -64 -109 -21 3 -39 28 -113 157 -48 85 -116 191
-150 235 -34 45 -61 86 -61 93 0 7 -3 10 -7 8 -4 -2 -21 11 -39 29 -51 52 -20
53 57 2 73 -48 164 -132 224 -205 42 -53 61 -50 76 11 18 69 58 159 67 151 4
-5 5 -2 1 5 -13 23 212 449 311 589 45 65 72 88 86 74 5 -5 -24 -73 -64 -152z
m173 -219 c95 -27 198 -230 156 -310 -33 -61 -124 -88 -188 -55 -35 18 -72 64
-63 78 3 6 1 7 -6 3 -17 -11 -64 98 -69 159 -4 44 0 55 23 83 23 27 63 48 100
51 6 1 26 -4 47 -9z m255 -440 c2 0 21 -36 43 -80 108 -216 223 -571 237 -732
7 -92 -6 -102 -55 -40 l-31 37 -48 -50 c-26 -28 -87 -102 -135 -165 -91 -122
-161 -200 -177 -200 -20 0 -41 45 -41 88 0 23 9 59 19 80 31 59 87 133 95 125
4 -5 6 -3 4 2 -1 6 18 42 43 80 71 107 93 178 86 273 -5 68 -26 163 -55 257
-17 57 -51 112 -88 146 -20 19 -52 48 -70 66 -41 38 -45 75 -10 99 32 20 113
32 151 22 16 -4 31 -8 32 -8z m-1248 1 c21 -14 15 -67 -13 -115 -13 -23 -60
-80 -103 -127 -161 -173 -258 -341 -329 -573 l-18 -58 32 -29 c18 -16 41 -29
52 -29 10 0 22 -4 25 -10 10 -16 61 -11 77 8 9 9 23 41 32 70 40 136 141 334
228 443 23 30 74 84 112 121 74 72 116 90 162 69 43 -19 33 -74 -38 -209 -102
-195 -174 -343 -199 -412 -12 -36 -25 -67 -28 -70 -3 -3 -6 -9 -6 -15 0 -5
-14 -62 -30 -125 -27 -108 -29 -127 -29 -310 0 -164 3 -212 22 -300 31 -145
57 -219 101 -287 189 -294 326 -536 384 -683 140 -353 165 -955 61 -1468 -12
-57 -62 -78 -105 -43 -23 18 -23 21 -20 193 4 237 -11 316 -75 410 -24 35 -33
62 -38 110 -4 35 -5 72 -2 83 8 39 19 221 17 280 -3 115 -72 599 -91 642 -27
62 -101 162 -182 245 -108 113 -183 218 -207 290 -53 161 -91 401 -91 573 0
115 0 115 -94 174 -52 32 -97 40 -113 19 -49 -62 6 -318 119 -560 28 -59 48
-114 45 -123 -12 -30 -54 -17 -101 33 -59 63 -75 84 -125 169 -26 43 -40 77
-35 85 4 7 3 10 -1 5 -11 -10 -48 81 -76 190 -33 129 -34 364 0 515 13 59 26
106 30 104 3 -2 6 8 7 23 1 40 93 227 156 318 68 99 253 292 331 343 60 41
122 53 156 31z m828 -30 c35 -22 71 -79 109 -172 44 -108 43 -333 -1 -583 -68
-374 -85 -606 -57 -747 16 -76 44 -129 68 -129 26 0 86 70 124 146 88 177 197
312 285 353 56 26 85 26 135 1 49 -25 52 -50 9 -82 -127 -96 -162 -148 -293
-427 -140 -299 -185 -371 -233 -371 -32 0 -76 34 -107 83 -94 148 -154 404
-161 687 -5 202 6 283 80 595 17 72 28 153 32 235 7 163 -8 222 -73 285 -24
24 -44 50 -44 59 0 22 59 86 79 86 9 0 30 -9 48 -19z m-262 -542 c52 -63 45
-144 -24 -286 -109 -223 -151 -377 -151 -552 0 -199 40 -326 175 -556 101
-172 312 -581 360 -696 69 -167 118 -351 146 -554 25 -178 15 -551 -22 -810
-71 -499 -266 -1232 -391 -1468 -51 -95 -84 -122 -116 -94 -43 40 -76 247 -87
553 l-7 181 31 70 c112 256 213 648 253 988 16 141 16 541 0 665 -52 388 -173
725 -368 1023 -35 54 -61 103 -58 109 4 6 2 8 -4 4 -15 -9 -78 106 -120 218
-91 243 -83 477 28 806 81 241 146 380 171 364 5 -3 8 0 7 6 -7 28 90 73 135
62 9 -2 28 -17 42 -33z m-602 -8823 c12 -3 51 -7 87 -10 57 -4 68 -8 92 -35
26 -29 28 -38 28 -116 0 -46 -4 -95 -10 -110 -13 -35 -65 -55 -142 -55 -41 0
-71 -5 -86 -16 l-22 -15 0 64 c0 44 -5 68 -14 76 -14 11 -152 14 -141 3 3 -3
0 -11 -6 -18 -7 -8 -9 -37 -6 -74 l6 -60 -26 20 c-20 15 -41 20 -90 20 -69 0
-116 17 -133 49 -5 11 -10 62 -10 114 0 87 2 96 25 119 28 29 63 38 139 38 29
0 61 6 72 14 21 15 21 14 18 -57 l-2 -73 70 -3 c91 -3 98 3 98 91 0 63 1 68
16 54 8 -9 25 -18 37 -20z m-697 -56 c72 0 95 -4 122 -20 40 -25 61 -70 57
-123 -6 -71 -5 -71 -277 -73 -134 -1 -249 -3 -256 -3 -8 -1 -27 -15 -43 -32
l-30 -32 -24 23 c-13 13 -22 27 -18 33 3 6 1 7 -5 3 -15 -9 -32 26 -32 66 0
52 18 102 45 128 23 21 38 25 132 30 105 6 106 6 136 40 l31 35 37 -37 37 -38
88 0z m1069 2 c-2 -7 0 -10 5 -7 6 4 10 -30 10 -94 l0 -100 -35 -38 -34 -37
-25 23 c-39 37 -48 72 -45 169 4 79 7 93 33 126 l28 38 34 -33 c19 -19 32 -39
29 -47z m434 -35 c-6 -10 -35 -30 -65 -43 -30 -13 -54 -27 -54 -32 0 -28 30
-32 227 -32 l203 0 0 -34 c0 -25 -9 -44 -36 -73 l-36 -39 -33 33 c-21 21 -43
33 -61 34 -34 1 -340 1 -367 0 -11 -1 -32 -15 -49 -33 l-30 -32 -39 41 c-35
38 -39 48 -39 94 0 108 45 149 164 149 88 0 137 17 162 56 l18 27 23 -48 c16
-37 19 -53 12 -68z m434 95 c10 -10 14 -22 10 -27 -5 -4 -3 -5 4 -1 20 11 33
-29 39 -126 l6 -93 -37 -46 -38 -46 -33 37 c-34 37 -34 38 -34 141 0 95 2 106
26 141 30 43 35 45 57 20z m501 -46 c22 -10 60 -16 111 -16 126 0 165 -34 165
-144 0 -58 -3 -68 -34 -105 -33 -39 -36 -41 -46 -21 -24 44 -62 52 -244 52
-94 0 -181 0 -193 -1 -12 -1 -37 -14 -56 -31 l-34 -29 -36 36 c-35 33 -37 39
-37 97 0 107 38 144 150 146 104 3 129 10 163 46 l32 33 12 -23 c7 -13 28 -31
47 -40z"/>
<path d="M9845 11161 c-3 -5 -2 -12 3 -15 5 -3 9 1 9 9 0 17 -3 19 -12 6z"/>
<path d="M9205 11146 c-76 -18 -135 -41 -205 -82 -73 -43 -91 -65 -97 -118 -5
-44 -5 -46 62 -112 53 -52 65 -68 54 -76 -11 -8 -10 -9 4 -4 34 11 210 -225
285 -384 25 -52 50 -98 56 -102 40 -27 184 38 265 121 31 30 60 54 64 53 5 -1
6 2 2 8 -3 5 3 23 14 39 39 55 131 256 143 313 17 80 1 127 -67 193 -66 64
-120 97 -221 131 -97 33 -263 42 -359 20z"/>
<path d="M8685 11081 c-3 -5 -2 -12 3 -15 5 -3 9 1 9 9 0 17 -3 19 -12 6z"/>
<path d="M10015 10981 c-3 -5 -2 -12 3 -15 5 -3 9 1 9 9 0 17 -3 19 -12 6z"/>
<path d="M8896 10832 c-3 -5 1 -9 9 -9 8 0 12 4 9 9 -3 4 -7 8 -9 8 -2 0 -6
-4 -9 -8z"/>
<path d="M8973 10775 c0 -8 4 -12 9 -9 5 3 6 10 3 15 -9 13 -12 11 -12 -6z"/>
<path d="M9694 10289 c0 -13 3 -15 13 -7 7 6 13 12 13 13 0 2 -6 5 -13 8 -7 3
-13 -3 -13 -14z"/>
<path d="M8177 10869 c7 -7 15 -10 18 -7 3 3 -2 9 -12 12 -14 6 -15 5 -6 -5z"/>
<path d="M6705 10794 c-16 -2 -56 -11 -88 -20 -31 -8 -63 -12 -70 -8 -6 4 -9
4 -5 -1 4 -4 -20 -21 -54 -37 -92 -43 -173 -105 -268 -204 -47 -49 -89 -88
-93 -86 -5 1 -6 -2 -2 -8 4 -6 -7 -32 -24 -58 -16 -26 -41 -71 -54 -99 -13
-29 -26 -51 -28 -49 -2 3 -5 -5 -6 -17 0 -12 -8 -49 -17 -82 -72 -272 24 -619
252 -910 60 -76 291 -310 299 -302 2 3 -5 47 -16 99 -44 208 -36 394 24 576
71 211 206 406 471 683 165 172 196 237 154 323 -11 25 -40 64 -63 88 -23 24
-41 47 -39 51 1 5 -2 6 -7 2 -6 -3 -25 1 -42 10 -73 38 -232 62 -324 49z"/>
<path d="M7465 9991 c-3 -5 -2 -12 3 -15 5 -3 9 1 9 9 0 17 -3 19 -12 6z"/>
<path d="M8407 10099 c7 -7 15 -10 18 -7 3 3 -2 9 -12 12 -14 6 -15 5 -6 -5z"/>
<path d="M8503 8525 c0 -8 4 -12 9 -9 5 3 6 10 3 15 -9 13 -12 11 -12 -6z"/>
<path d="M8576 7293 c-6 -14 -5 -15 5 -6 7 7 10 15 7 18 -3 3 -9 -2 -12 -12z"/>
<path d="M7369 603 c-13 -16 -12 -17 4 -4 9 7 17 15 17 17 0 8 -8 3 -21 -13z"/>
<path d="M6661 637 c-20 -25 11 -38 81 -35 55 3 63 5 63 23 0 18 -8 20 -66 23
-47 2 -69 -1 -78 -11z"/>
<path d="M9237 650 c-46 -8 -53 -15 -37 -35 17 -21 123 -21 140 0 25 30 -29
48 -103 35z"/>
<path d="M9484 542 c0 -10 6 -19 13 -19 8 0 9 6 2 19 -5 10 -11 18 -12 18 -2
0 -3 -8 -3 -18z"/>
</g>
</svg>
